<?xml version="1.0" standalone="no"?><!DOCTYPE svg PUBLIC "-//W3C//DTD SVG 1.1//EN" "http://www.w3.org/Graphics/SVG/1.1/DTD/svg11.dtd"><svg t="1754024827234" class="icon" viewBox="0 0 1024 1024" version="1.1" xmlns="http://www.w3.org/2000/svg" p-id="1539" xmlns:xlink="http://www.w3.org/1999/xlink" width="200" height="200"><path d="M286.6688 450.56h446.0032l-39.2704-174.2336H328.96z" fill="#CAE2FF" p-id="1540"></path><path d="M732.672 481.28H286.6688a30.72 30.72 0 0 1-24.1664-11.7248 30.6432 30.6432 0 0 1-5.6832-26.2656l42.2912-174.2848a30.67904 30.67904 0 0 1 29.8496-23.4496h364.4416c14.3872 0 26.8288 9.9328 29.952 23.9616l39.2704 174.2848a30.7712 30.7712 0 0 1-5.9904 25.9584A30.592 30.592 0 0 1 732.672 481.28zM325.7344 419.84h368.5376l-25.4464-112.8448H353.1264L325.7344 419.84z" fill="#5866D2" p-id="1541"></path><path d="M255.232 650.0352m-49.7664 0a49.7664 49.7664 0 1 0 99.5328 0 49.7664 49.7664 0 1 0-99.5328 0Z" fill="#5866D2" p-id="1542"></path><path d="M766.9248 650.0352m-49.7664 0a49.7664 49.7664 0 1 0 99.5328 0 49.7664 49.7664 0 1 0-99.5328 0Z" fill="#5866D2" p-id="1543"></path><path d="M806.1952 916.5824c-42.8544 0-79.36-27.9552-92.1088-66.6112H312.5248c-12.8 38.656-49.2544 66.6112-92.1088 66.6112-51.3024 0-93.3888-40.0384-96.768-90.4704-58.4704-35.6352-90.368-104.7552-78.7456-175.2576l16.128-97.7408c7.1168-42.9056 36.1472-78.6944 74.8032-94.4128l48.384-230.7584c13.824-65.8944 72.7552-113.7664 140.0832-113.7664h371.7632c67.1232 0 126.0032 47.616 139.9808 113.2544l48.7424 228.5056c42.1888 13.8752 74.752 51.2 82.3296 97.1264l16.128 97.7408c11.8272 71.4752-20.7872 141.056-80.4352 176.3328-3.7888 49.9712-45.6704 89.4464-96.6144 89.4464z m-35.5328-96.512a35.55328 35.55328 0 0 0 35.5328 35.072c19.6096 0 35.5328-15.9744 35.5328-35.5328 0-1.6896-0.2048-3.584-0.5632-5.8368a30.66368 30.66368 0 0 1 18.2272-33.2288c44.9536-19.2512 71.5264-69.5296 63.2832-119.6032L906.5472 563.2c-4.4544-26.9312-25.6-47.9744-51.4048-51.0976a30.70464 30.70464 0 0 1-26.3168-24.064l-52.8384-247.6544c-7.9872-37.4784-41.5744-64.6656-79.872-64.6656H324.352c-38.4512 0-72.0384 27.2896-79.9744 64.9216L192.3072 488.96a30.65856 30.65856 0 0 1-23.808 23.7568c-23.808 4.9152-42.5984 25.1904-46.7968 50.3808l-16.128 97.7408c-8.2944 50.2272 17.2544 99.2256 62.1568 119.0912a30.71488 30.71488 0 0 1 17.8176 33.3824c-0.4096 2.3552-0.6144 4.352-0.6144 6.2464 0 19.6096 15.9744 35.5328 35.5328 35.5328 19.456 0 35.2768-15.6672 35.5328-35.072V819.2c0-16.9472 13.7728-30.72 30.72-30.72h453.2736c16.9472 0 30.72 13.7728 30.72 30.72-0.0512 0.3072-0.0512 0.5632-0.0512 0.8704z" fill="#5866D2" p-id="1544"></path></svg>