<?xml version="1.0" standalone="no"?><!DOCTYPE svg PUBLIC "-//W3C//DTD SVG 1.1//EN" "http://www.w3.org/Graphics/SVG/1.1/DTD/svg11.dtd"><svg t="1754024859399" class="icon" viewBox="0 0 1024 1024" version="1.1" xmlns="http://www.w3.org/2000/svg" p-id="1998" xmlns:xlink="http://www.w3.org/1999/xlink" width="200" height="200"><path d="M314.6752 942.08c-27.4432 0-49.664-22.2208-49.664-49.664v-250.2144c0-27.4432 22.2208-49.664 49.664-49.664 27.4432 0 49.664 22.2208 49.664 49.664v250.2144c0.0512 27.4432-22.2208 49.664-49.664 49.664zM762.88 942.08c-27.4432 0-49.664-22.2208-49.664-49.664v-250.2144c0-27.4432 22.2208-49.664 49.664-49.664 27.4432 0 49.664 22.2208 49.664 49.664v250.2144c0 27.4432-22.2208 49.664-49.664 49.664z" fill="#CAE2FF" p-id="1999"></path><path d="M793.4976 567.9104V127.3856c0.3584-7.7824-0.0512-32.0512-17.92-51.8144-10.0352-11.1104-29.0304-24.3712-62.464-24.3712-73.9328 0-116.3264 103.2704-116.3264 283.392v87.9616c0 17.8176 0 44.6976 11.3152 69.3248 10.6496 23.1936 34.4064 50.8416 87.0912 50.8416h36.864v25.1904c-29.1328 12.0832-49.664 40.8064-49.664 74.2912v250.2144c0 44.3392 36.0448 80.384 80.384 80.384s80.384-36.0448 80.384-80.384v-250.2144c0-33.4848-20.5312-62.208-49.664-74.2912zM695.1936 481.28c-29.3888 0-36.9664-12.0832-36.9664-58.7264V334.592c0-156.8256 35.7376-221.952 54.8864-221.952 8.0896 0 14.3872 1.4848 16.7424 3.9936 1.792 1.8944 2.2528 5.4272 2.304 7.0144l-0.1024 0.3584V481.28h-36.864z m86.528 411.136c0 10.4448-8.4992 18.944-18.944 18.944s-18.944-8.4992-18.944-18.944v-250.2144c0-10.4448 8.4992-18.944 18.944-18.944s18.944 8.4992 18.944 18.944v250.2144zM429.824 72.8064a30.72 30.72 0 0 0-38.4512-20.2752 30.72 30.72 0 0 0-20.2752 38.4512l0.256 0.8192c44.8512 144.64 46.7456 237.9776 40.4992 290.816-5.2224 43.8784-34.6112 62.1056-66.4576 68.7104V81.92c0-16.9472-13.7728-30.72-30.72-30.72s-30.72 13.7728-30.72 30.72v369.2032c-25.7024-6.656-56.5248-25.3952-65.4336-76.032-18.7904-106.8544 39.2192-281.6 39.8336-283.392a30.77632 30.77632 0 0 0-19.3536-38.912 30.70976 30.70976 0 0 0-38.912 19.3024c-2.6112 7.7312-63.6416 191.2832-42.0864 313.6 14.4384 81.9712 71.9872 118.8352 125.952 127.9488v54.2208c-29.1328 12.0832-49.664 40.8064-49.664 74.2912v250.2144c0 44.3392 36.0448 80.384 80.384 80.384s80.384-36.0448 80.384-80.384v-250.2144c0-33.4336-20.5312-62.1568-49.664-74.2912v-54.2208c72.4992-10.3936 119.296-54.9888 127.488-123.7504 6.9632-58.7264 5.2224-161.28-42.8032-316.2624l-0.256-0.8192zM333.6704 892.416c0 10.4448-8.4992 18.944-18.944 18.944s-18.944-8.4992-18.944-18.944v-250.2144c0-10.4448 8.4992-18.944 18.944-18.944s18.944 8.4992 18.944 18.944v250.2144z" fill="#5866D2" p-id="2000"></path></svg>