<?xml version="1.0" standalone="no"?><!DOCTYPE svg PUBLIC "-//W3C//DTD SVG 1.1//EN" "http://www.w3.org/Graphics/SVG/1.1/DTD/svg11.dtd"><svg t="1754024852996" class="icon" viewBox="0 0 1024 1024" version="1.1" xmlns="http://www.w3.org/2000/svg" p-id="1848" xmlns:xlink="http://www.w3.org/1999/xlink" width="200" height="200"><path d="M121.3952 391.1168l209.2544-182.0672 138.752 182.0672-18.3808 70.1952-136.2944-121.4976-179.8144 178.3808zM902.144 421.4272L734.976 275.968 624.128 421.4272l14.6944 56.064 108.9024-97.0752 143.616 142.4896z" fill="#CAE2FF" p-id="1849"></path><path d="M515.2256 355.3792c0.512-3.2256 1.0752-6.4512 1.5872-9.728 0.256-1.5872 0.512-3.1232 0.768-4.6592l1.0752-6.656c0.256-1.6896 0.512-3.328 0.768-4.9664 0.3584-2.0992 0.6656-4.1984 0.9728-6.2976 0.256-1.5872 0.512-3.1232 0.7168-4.7104 0.512-3.1744 0.9728-6.3488 1.4336-9.5232 0.3072-1.9456 0.5632-3.7888 0.8192-5.6832l0.6144-4.2496c0.3072-1.9968 0.5632-3.9936 0.8704-5.9392 0.1536-1.2288 0.3584-2.4576 0.512-3.6352 0.256-1.9968 0.5632-3.9936 0.8192-5.9904 0.1024-0.9728 0.256-1.8944 0.3584-2.8672 0.4608-3.6352 0.9216-7.168 1.3312-10.5472 0.1536-1.1264 0.256-2.2528 0.4096-3.328 0.1536-1.536 0.3072-2.9696 0.512-4.4544 0.1536-1.3824 0.3072-2.7648 0.4096-4.096 0.1024-1.28 0.256-2.5088 0.3584-3.7376 0.1536-1.5872 0.256-3.072 0.4096-4.608 0.1024-0.9216 0.1536-1.8944 0.256-2.816 0.2048-2.4064 0.3584-4.6592 0.4608-6.8608 0.7168-13.056-0.512-28.2624-3.7888-44.2368-7.2192-35.1744-24.576-74.1376-54.1184-102.4512-27.6992-26.5728-62.9248-41.1648-102.9632-43.0592-9.2672-0.4096-18.7392-0.2048-28.4672 0.768-71.2192 6.8608-135.0144 37.3248-179.6096 85.6576-50.3296 54.5792-75.3664 130.048-72.3968 218.3168 0.512 15.7696 1.0752 30.9248 1.6384 45.4656v0.0512c0.512 14.1312 1.024 27.7504 1.536 40.8064 2.2016 58.2144 4.0448 106.5472 4.096 147.5584v1.28c0 35.584-1.4336 65.6384-5.1712 91.7504l-0.1536 0.9728c-0.512 3.5328-1.0752 7.0656-1.6896 10.496-7.7824 43.4176-13.8752 125.952 32.512 190.5664 30.5664 42.5984 77.7728 68.9664 140.3392 78.3872 14.5408 2.2016 28.4672 3.2768 41.728 3.2768 47.2576 0 86.272-13.824 116.3264-41.3184 40.96-37.376 55.7056-91.8528 60.0064-138.1888 0.256-2.8672 0.4608-5.7344 0.6656-8.5504 0.1536-2.1504 0.256-4.2496 0.3584-6.3488 0.1536-2.7136 0.256-5.4272 0.3072-8.0896 0.1024-4.352 0.1536-8.5504 0.1536-12.5952-0.0512-7.2704-0.3072-14.08-0.6656-20.224-1.28-21.6064-2.048-42.0352-2.4064-61.4912-0.1024-4.864-0.1536-9.6768-0.1536-14.4384-0.256-52.3264 2.9696-98.0992 9.984-142.6432 0.512-3.1232 0.9728-6.2976 1.536-9.5232l0.1536-1.024c3.7376-23.1424 8.2944-49.5616 13.056-77.2608 3.3792-19.6096 6.8096-39.424 10.0352-58.624 0.1024-0.7168 0.256-1.4336 0.3584-2.1504 0.4608-2.56 0.9216-5.1712 1.3312-7.7824zM153.9072 439.0912c-0.3584-9.1136-0.7168-18.6368-1.0752-28.2624 24.1664-26.6752 50.2784-52.7872 77.9264-77.6192 34.8672-31.232 69.2736-66.4576 90.8288-89.2928 30.6688 31.7952 86.528 89.9072 127.4368 134.3488-2.048 11.8784-4.0448 23.7056-6.0928 35.2768-0.5632 3.1744-1.0752 6.2976-1.6384 9.3696-22.4768-24.9344-45.0048-48.7936-63.4368-68.3008-14.7456-15.616-27.4432-29.0816-31.744-34.304a30.75584 30.75584 0 0 0-21.8112-11.2128c-8.5504-0.5632-16.8448 2.4576-23.04 8.2944-5.9392 5.5808-12.8 11.8784-20.3776 18.8928-33.8432 31.1296-80.128 73.7792-126.1568 126.8736-0.2048-7.8336-0.4608-15.8208-0.8192-24.064zM361.1136 111.616c20.8896 0 39.168 4.9152 54.6816 14.7456 5.1712 3.2768 10.0352 7.0656 14.592 11.4176 30.72 29.44 40.2432 76.3904 39.0144 99.0208-0.1024 1.9968-0.256 4.1984-0.4608 6.5024l-0.3072 3.5328c-0.1024 1.1776-0.2048 2.3552-0.3072 3.6352-0.1536 1.5872-0.3072 3.2256-0.512 4.864l-0.3072 2.8672c-0.2048 1.8432-0.4608 3.7888-0.6656 5.7344l-0.3072 2.6112c-0.256 2.048-0.512 4.1472-0.8192 6.2976-0.1024 0.8704-0.256 1.7408-0.3584 2.6624l-0.9216 6.656c-0.1536 0.9216-0.256 1.8944-0.4096 2.816-0.3072 2.2528-0.6656 4.5056-0.9728 6.8608-0.1536 1.1776-0.3584 2.3552-0.512 3.5328l-0.9216 6.1952c-55.296-58.8288-117.6576-122.88-118.4256-123.6992-5.9392-6.0928-14.2848-9.6256-22.5792-9.2672-8.4992 0.1536-16.5376 3.84-22.2208 10.1376-0.5632 0.6144-54.9376 60.7232-108.5952 108.7488-13.2608 11.9296-26.2144 24.064-38.8096 36.4544v-0.3584-0.1536c0.2048-4.5568 0.5632-9.0112 0.9728-13.3632 0.1024-1.2288 0.256-2.4064 0.4096-3.584 0.3584-3.1744 0.6656-6.2976 1.1264-9.4208 0.2048-1.4848 0.4608-2.9696 0.7168-4.4544 0.4096-2.7136 0.8704-5.4272 1.3312-8.0384 0.3072-1.5872 0.6656-3.1232 0.9728-4.7104 0.512-2.4576 1.024-4.9152 1.5872-7.3216 0.3584-1.5872 0.8192-3.1744 1.2288-4.7616 0.6144-2.304 1.1776-4.5568 1.8432-6.8096 0.4608-1.5872 0.9216-3.1232 1.4336-4.6592 0.6656-2.1504 1.3824-4.3008 2.0992-6.4 0.512-1.536 1.0752-3.072 1.6384-4.5568 0.768-2.048 1.536-4.0448 2.304-6.0416 0.6144-1.4848 1.2288-2.9696 1.8432-4.4032 0.8192-1.9456 1.6896-3.84 2.56-5.7344 0.6656-1.4336 1.3312-2.816 1.9968-4.1984 0.9216-1.8432 1.8432-3.6864 2.816-5.4784l2.1504-3.9936c0.9728-1.792 2.048-3.5328 3.072-5.2736 0.768-1.28 1.4848-2.5088 2.304-3.7376 1.0752-1.7408 2.2016-3.4304 3.328-5.0688 0.768-1.1776 1.536-2.3552 2.3552-3.4816 1.2288-1.6896 2.4576-3.3792 3.6864-5.0176 0.768-1.024 1.536-2.0992 2.3552-3.072 1.3824-1.7408 2.7648-3.3792 4.1984-5.0688 0.7168-0.8704 1.4336-1.7408 2.2016-2.6112 1.6896-1.8944 3.4304-3.7888 5.1712-5.5808 0.512-0.5632 1.024-1.1264 1.536-1.6384 2.304-2.3552 4.6592-4.6592 7.0656-6.912l0.1024-0.1024c2.3552-2.1504 4.7104-4.2496 7.168-6.2976 0.7168-0.6144 1.4848-1.1776 2.2016-1.7408 1.7408-1.4336 3.5328-2.8672 5.3248-4.1984 0.9216-0.7168 1.8944-1.3824 2.816-2.048 1.6384-1.1776 3.2256-2.3552 4.9152-3.5328 1.024-0.7168 2.0992-1.3824 3.1744-2.0992 1.5872-1.024 3.1744-2.0992 4.7616-3.072 1.1264-0.7168 2.2528-1.3312 3.3792-1.9968 1.5872-0.9216 3.1744-1.8944 4.7616-2.7648 1.1776-0.6656 2.3552-1.28 3.5328-1.8944 1.5872-0.8704 3.1744-1.6896 4.8128-2.5088 1.2288-0.6144 2.4064-1.1776 3.6352-1.792 1.5872-0.768 3.2256-1.536 4.8128-2.2528 1.2288-0.5632 2.4576-1.0752 3.7376-1.6384 1.6384-0.7168 3.2768-1.3824 4.9152-1.9968 1.2288-0.512 2.5088-0.9728 3.7376-1.4848 1.6384-0.6144 3.328-1.2288 4.9664-1.792 1.28-0.4608 2.5088-0.8704 3.7888-1.28 1.6896-0.5632 3.3792-1.0752 5.0688-1.5872 1.28-0.4096 2.5088-0.768 3.7888-1.1264a194.56 194.56 0 0 1 5.1712-1.4336c1.2288-0.3072 2.5088-0.6656 3.7376-0.9728 1.7408-0.4608 3.5328-0.8192 5.3248-1.2288 1.2288-0.256 2.4576-0.5632 3.6352-0.8192l5.5296-1.0752c1.1264-0.2048 2.304-0.4608 3.4304-0.6144 2.048-0.3584 4.096-0.6656 6.144-0.9216 0.9216-0.1536 1.8944-0.3072 2.816-0.4096 3.0208-0.4096 5.9904-0.768 9.0112-1.024 4.5056-0.512 9.1136-0.7168 13.6192-0.7168zM172.032 848.2816c-34.4576-48.0256-26.8288-116.6848-21.9648-143.9744 0.6656-3.84 1.3312-7.7824 1.8944-11.776 0.0512-0.256 0.0512-0.4608 0.1024-0.7168 3.4304-23.1936 5.2736-49.408 5.7856-82.3808v-1.3312c0.1536-9.8304 0.1536-20.3264 0.0512-31.488v-0.4096c-0.0512-6.0416-0.1024-12.1856-0.256-18.688C212.992 482.7136 276.992 423.4752 320.6144 383.3856c3.84 4.096 8.0896 8.6016 12.6976 13.4656 27.2896 28.928 63.7952 67.584 94.976 104.3456-0.0512 0.4096-0.1024 0.768-0.2048 1.1776-10.8544 69.2224-13.312 140.6976-8.0384 231.6288 0.256 4.0448 0.4096 8.0896 0.512 12.032s0.1024 7.8848 0.0512 11.7248c-0.7168 54.0672-15.4112 97.4848-41.472 121.2928-9.2672 8.448-20.3264 14.7968-33.0752 18.9952-20.48 6.7584-45.3632 8.0384-74.496 3.6352-45.4656-6.8096-78.9504-24.7808-99.5328-53.4016zM935.2192 670.0544a210.33984 210.33984 0 0 1-1.4848-9.3184c-3.072-21.3504-4.1984-46.0288-4.1984-75.264v-0.4608c0-33.6896 1.536-73.4208 3.3792-121.344 0.4096-10.8032 0.8192-22.016 1.28-33.7408 0.2048-5.0688 0.3584-10.2912 0.5632-15.5648 0.256-7.168 0.512-14.4384 0.768-21.9136 2.5088-74.1376-18.6368-137.6256-61.0816-183.6544-28.2624-30.6176-65.536-52.736-107.7248-64.3072-14.08-3.84-28.672-6.5536-43.6736-7.9872-44.3392-4.2496-83.3024 8.2944-112.5376 36.3008-6.912 6.6048-13.0048 13.824-18.3808 21.504-21.504 30.5152-31.0272 67.4304-31.1296 96.4608 0 2.4064 0.0512 4.7616 0.1536 7.0656 0.1024 1.792 0.2048 3.6864 0.3584 5.6832 0.0512 0.768 0.1536 1.5872 0.2048 2.4064l0.3072 3.6864 0.3072 3.1744c0.1024 1.0752 0.2048 2.1504 0.3584 3.2768 0.1536 1.2288 0.256 2.5088 0.4096 3.7888l0.3072 2.7136c0.3072 2.7648 0.6656 5.5808 1.0752 8.4992 0.1024 0.9216 0.256 1.792 0.3584 2.7648l0.6144 4.5568c0.1536 1.2288 0.3072 2.4064 0.512 3.6352l0.6144 4.1984 0.768 5.1712 0.4608 3.072c0.4096 2.9184 0.8704 5.8368 1.3312 8.8064 0.0512 0.4608 0.1536 0.8704 0.2048 1.3312 0.4096 2.816 0.8704 5.632 1.3312 8.4992 0.0512 0.4608 0.1536 0.9216 0.2048 1.4336l1.536 9.6768c0.5632 3.4816 1.1264 6.9632 1.7408 10.4448l0.1536 0.8704c0.512 3.0208 1.024 5.9904 1.4848 9.0112 0.1536 0.768 0.256 1.536 0.4096 2.3552 0.1024 0.5632 0.2048 1.1264 0.3072 1.7408 2.304 13.6192 4.7104 27.5456 7.1168 41.3696 3.7376 21.6576 7.3216 42.2912 10.2912 60.6208 0.6144 3.7888 1.2288 7.5264 1.792 11.0592 0.0512 0.2048 0.0512 0.4096 0.1024 0.6144 5.6832 36.4032 8.3456 73.8304 8.1408 116.6848 0 3.8912-0.0512 7.8336-0.1536 11.8272-0.256 15.9744-0.9216 32.6656-1.9456 50.3808-2.4064 41.4208 1.1264 117.8112 51.8656 164.096 2.1504 1.9456 4.4544 3.7376 6.7072 5.5296 1.1264 0.9216 2.2016 1.8944 3.328 2.7648 1.2288 0.9216 2.56 1.6896 3.84 2.56 2.2528 1.5872 4.5056 3.2256 6.912 4.608a1.536 1.536 0 0 0 0.4096 0.2048c18.3808 10.9056 39.5776 17.3568 63.488 19.2 4.8128 0.3584 9.728 0.5632 14.7968 0.5632 11.2128 0 22.9376-0.9216 35.2256-2.7648 52.992-7.936 93.1328-30.4128 119.1936-66.7648 39.2704-54.8864 34.1504-124.4672 27.5968-161.1264z m-291.4816-233.1136c-1.3824-7.8848-2.7136-15.872-4.096-23.8592 31.7952-34.4576 73.728-78.2336 99.1744-104.5504 17.92 18.8416 44.3904 45.7216 71.2192 69.7344 22.1184 19.8656 43.008 40.704 62.3616 61.952-0.256 7.2192-0.5632 14.2848-0.8192 21.1456 0 0.3072 0 0.6144-0.0512 0.9216-30.5152-34.7136-61.1328-61.4912-84.3776-81.7664-8.9088-7.7824-16.64-14.5408-22.8864-20.4288a30.69952 30.69952 0 0 0-40.6528-1.3312c-11.9808 9.8816-45.8752 41.984-79.872 78.1824z m9.2672-219.7504c16.4352-15.7184 37.4272-22.1184 64.1536-19.5072 2.3552 0.2048 4.7104 0.512 7.0144 0.8192 0.768 0.1024 1.5872 0.256 2.3552 0.3584 1.536 0.2048 3.1232 0.4608 4.6592 0.7168 0.9216 0.1536 1.8944 0.3584 2.816 0.512 1.3824 0.256 2.816 0.512 4.1984 0.8192 1.024 0.2048 1.9968 0.4096 2.9696 0.6656 1.3312 0.3072 2.6624 0.6144 4.0448 0.9216l3.072 0.768 3.9424 1.0752c1.024 0.3072 2.048 0.5632 3.072 0.9216 1.3312 0.4096 2.6112 0.8192 3.8912 1.2288 1.024 0.3072 1.9968 0.6656 3.0208 1.024 1.3312 0.4608 2.6624 0.9728 3.9936 1.4336 0.9728 0.3584 1.8944 0.7168 2.8672 1.0752 1.4336 0.5632 2.8672 1.1776 4.2496 1.7408 0.8192 0.3584 1.6384 0.6656 2.5088 1.024 2.2016 0.9728 4.352 1.9968 6.5024 3.0208 0.6144 0.3072 1.28 0.6656 1.8944 0.9728 1.536 0.768 3.072 1.5872 4.608 2.4064 0.9216 0.512 1.792 1.024 2.6624 1.536 1.2288 0.7168 2.4576 1.3824 3.6864 2.1504 0.9728 0.5632 1.8944 1.1776 2.816 1.792 1.1264 0.7168 2.304 1.4336 3.4304 2.2016 0.9728 0.6144 1.8944 1.28 2.816 1.9456 1.0752 0.768 2.2016 1.536 3.2768 2.3552 0.9216 0.7168 1.8432 1.3824 2.7648 2.0992 1.0752 0.8192 2.0992 1.6384 3.1744 2.5088 0.9216 0.7168 1.792 1.4848 2.7136 2.2528 1.024 0.8704 2.048 1.792 3.072 2.7136 0.8704 0.768 1.7408 1.536 2.56 2.3552 1.024 0.9728 2.048 1.9968 3.072 3.0208 0.8192 0.768 1.5872 1.5872 2.3552 2.4064 1.1264 1.1776 2.2016 2.3552 3.2768 3.584 0.6656 0.7168 1.3312 1.3824 1.9456 2.1504 1.6384 1.8944 3.2768 3.8912 4.864 5.888 0.5632 0.7168 1.0752 1.4336 1.5872 2.1504 1.0752 1.3824 2.0992 2.7648 3.1232 4.1984 0.6656 0.9216 1.28 1.8432 1.8944 2.816 0.8704 1.28 1.7408 2.6112 2.56 3.9424l1.8432 3.072c0.768 1.3312 1.5872 2.6624 2.304 3.9936 0.6144 1.0752 1.1776 2.2016 1.792 3.2768l2.1504 4.1472c0.5632 1.1264 1.1264 2.2528 1.6384 3.4304 0.6656 1.4336 1.3312 2.9184 1.9968 4.4544 0.512 1.1776 0.9728 2.304 1.4848 3.4816 0.6144 1.5872 1.2288 3.1744 1.8432 4.8128 0.4096 1.1776 0.8704 2.304 1.28 3.4816 0.6144 1.7408 1.1776 3.584 1.7408 5.376 0.3584 1.0752 0.7168 2.1504 1.024 3.2768 0.6656 2.304 1.3312 4.7104 1.8944 7.1168 0.1536 0.6144 0.3584 1.2288 0.512 1.8944 0.768 3.072 1.4336 6.1952 2.048 9.4208 0.1536 0.8192 0.3072 1.6896 0.4096 2.5088 0.4096 2.4064 0.8704 4.8128 1.2288 7.3216l0.4608 3.5328c0.2048 1.6384 0.4096 3.2768 0.5632 4.9664-7.1168-6.8096-14.3872-13.5168-21.76-20.1728-43.8272-39.2704-88.5248-88.6784-88.9856-89.1392a30.68928 30.68928 0 0 0-22.2208-10.1376h-0.5632c-8.2944 0-16.2304 3.328-22.016 9.3184-0.6144 0.6656-46.4384 47.7696-89.9584 93.8496l-0.4608-3.1232c-0.3584-2.4064-0.6656-4.7616-0.9728-7.0656-0.1024-0.8704-0.256-1.7408-0.3584-2.6112-0.2048-1.4336-0.3584-2.816-0.512-4.1472l-0.3072-2.7136c-0.2048-1.6384-0.4096-3.2256-0.5632-4.7616-0.1536-1.4848-0.3584-2.9696-0.4608-4.4032-0.1024-0.8192-0.1536-1.6384-0.256-2.4064-0.1024-1.2288-0.256-2.4576-0.3072-3.6352l-0.1536-1.8944c-0.1536-1.7408-0.256-3.4304-0.3584-5.0176-0.9216-17.92 6.5024-54.5792 30.5152-77.568z m204.5952 578.1504c-16.0256 22.3232-42.3936 36.4032-78.3872 41.8304-9.2672 1.3824-18.0224 2.0992-26.2144 2.048-24.5248-0.1024-43.9296-6.5536-57.9072-19.3536l-0.0512-0.0512c-20.2752-18.5344-31.6928-52.6848-32.3584-95.4368v-0.7168c-0.0512-6.144 0.0512-12.4928 0.4608-18.9952 0.256-4.6592 0.512-9.2672 0.7168-13.824l0.3072-7.4752c0.1024-1.9968 0.2048-4.0448 0.256-6.0416 0.1024-2.5088 0.1536-5.0176 0.256-7.5264 0.0512-1.8944 0.1536-3.7888 0.2048-5.6832l0.1536-7.1168c0.0512-1.8944 0.1024-3.84 0.1024-5.7344 0.0512-2.3552 0.0512-4.7104 0.1024-7.0656 0-1.8432 0.0512-3.6864 0.0512-5.5296v-7.1168-5.1712c0-2.3552-0.0512-4.6592-0.1024-7.0144 0-1.6896-0.0512-3.3792-0.0512-5.0688-0.0512-2.304-0.1024-4.608-0.2048-6.8608l-0.1536-4.9664c-0.1024-2.2528-0.2048-4.4544-0.256-6.7072-0.0512-1.6384-0.1024-3.2768-0.2048-4.9152-0.1024-2.2016-0.256-4.4032-0.3584-6.6048-0.1024-1.6384-0.1536-3.2256-0.256-4.864l-0.4608-6.4512c-0.1024-1.5872-0.2048-3.2256-0.3584-4.8128-0.1536-2.1504-0.3584-4.2496-0.512-6.3488-0.1536-1.5872-0.256-3.1744-0.4096-4.7616l-0.6144-6.144c-0.1536-1.6384-0.3072-3.2768-0.512-4.864-0.2048-1.9968-0.4608-3.9424-0.6656-5.9392-0.2048-1.6384-0.3584-3.328-0.5632-4.9664l-0.768-5.7856c-0.2048-1.6896-0.4608-3.3792-0.6656-5.0176-0.256-1.8944-0.5632-3.7888-0.8192-5.632-0.2048-1.4848-0.4096-2.9184-0.6656-4.4032 28.5696-33.3312 63.8976-68.9152 86.6304-90.5216 1.1264 0.9728 2.2528 1.9456 3.3792 2.9696 35.2256 30.7712 82.944 72.4992 121.6512 132.864-0.1024 5.2736-0.1536 10.2912-0.2048 15.2064v0.2048c-0.0512 9.2672-0.0512 17.9712 0.0512 26.1632v1.024c0.4096 27.3408 1.9968 49.0496 4.8128 68.352 0.0512 0.2048 0.0512 0.4096 0.1024 0.6144 0.512 3.328 1.024 6.6048 1.5872 9.7792 3.9424 21.76 10.0864 76.544-17.1008 114.432z" fill="#5866D2" p-id="1850"></path></svg>