<?xml version="1.0" standalone="no"?><!DOCTYPE svg PUBLIC "-//W3C//DTD SVG 1.1//EN" "http://www.w3.org/Graphics/SVG/1.1/DTD/svg11.dtd"><svg t="1754024836193" class="icon" viewBox="0 0 1024 1024" version="1.1" xmlns="http://www.w3.org/2000/svg" p-id="1696" xmlns:xlink="http://www.w3.org/1999/xlink" width="200" height="200"><path d="M222.0544 419.1744V297.6256S232.8576 208.384 329.8816 208.384h370.5856S808.96 209.3568 808.96 306.432v112.7424h-146.7392s-18.6368-53.9136-77.4656-53.9136H432.7936S370.0736 378.9824 370.0736 427.008H222.0544v-7.8336z" fill="#CAE2FF" p-id="1697"></path><path d="M703.4368 163.9424h-27.4432v-28.1088c0-50.4832-41.0624-91.4944-91.4944-91.4944H449.4848c-50.432 0-91.4944 41.0624-91.4944 91.4944v28.1088h-29.0816c-82.8928 0-150.3232 67.4304-150.3232 150.3232v423.5264c0 61.0304 36.5568 113.6128 88.8832 137.1648v6.5024c0 57.7536 47.0016 104.7552 104.7552 104.7552 55.5008 0 100.9152-43.4176 104.3968-98.048h74.496c3.4816 54.6304 48.896 98.048 104.3968 98.048 57.7536 0 104.7552-47.0016 104.7552-104.7552v-4.4544c54.784-22.4768 93.5424-76.3392 93.5424-139.1616V314.2656c-0.0512-82.8928-67.4816-150.3232-150.3744-150.3232z m-284.0064-28.1088c0-16.5888 13.4656-30.0544 30.0544-30.0544h134.9632c16.5888 0 30.0544 13.4656 30.0544 30.0544v28.1088h-195.072v-28.1088zM328.9088 225.3824h374.4768c48.9984 0 88.8832 39.8848 88.8832 88.8832v96.1536H672.768c-10.2912-38.0928-45.056-66.2016-86.3744-66.2016H445.9008c-41.2672 0-76.032 28.1088-86.3744 66.2016H240.0256V314.2656c0-48.9984 39.8848-88.8832 88.8832-88.8832z m285.6448 208.384v14.7456c0 15.5136-12.5952 28.1088-28.1088 28.1088H445.9008c-15.5136 0-28.1088-12.5952-28.1088-28.1088v-14.7456c0-15.5136 12.5952-28.1088 28.1088-28.1088h140.4928c15.5136 0 28.16 12.5952 28.16 28.1088z m-242.3296 491.008c-21.6064 0-39.5776-15.872-42.8032-36.608h85.5552c-3.2256 20.6848-21.1456 36.608-42.752 36.608z m283.2896 0c-21.6064 0-39.5776-15.872-42.8032-36.608h85.5552c-3.2256 20.6848-21.1456 36.608-42.752 36.608z m47.9232-98.048H328.9088c-48.9984 0-88.8832-39.8848-88.8832-88.8832V471.8592h119.552c10.2912 38.0928 45.056 66.2016 86.3744 66.2016h140.4928c41.2672 0 76.032-28.1088 86.3744-66.2016h119.552v265.984c-0.0512 48.9984-39.936 88.8832-88.9344 88.8832z" fill="#5866D2" p-id="1698"></path></svg>