<?xml version="1.0" standalone="no"?><!DOCTYPE svg PUBLIC "-//W3C//DTD SVG 1.1//EN" "http://www.w3.org/Graphics/SVG/1.1/DTD/svg11.dtd"><svg t="1754024991392" class="icon" viewBox="0 0 1024 1024" version="1.1" xmlns="http://www.w3.org/2000/svg" p-id="3366" xmlns:xlink="http://www.w3.org/1999/xlink" width="200" height="200"><path d="M252.9792 371.8144h471.2448v219.0848H252.9792z" fill="#CAE2FF" p-id="3367"></path><path d="M928.2048 71.0144h-0.4096c-2.2528 0.0512-222.208 5.888-233.728 252.3136H270.1824c3.84-63.1808 22.9888-111.616 57.1904-144.128 52.1728-49.6128 124.0576-46.7456 125.3376-46.6944 16.8448 0.8704 31.3856-11.9296 32.3584-28.8256 1.024-16.9472-11.8784-31.488-28.8256-32.512-3.9936-0.256-98.4576-5.0688-170.496 62.8224C234.1376 182.5792 207.9744 254.464 207.9744 347.648v337.5104c0 16.9472 13.7728 30.72 30.72 30.72s30.72-13.7728 30.72-30.72V621.568h424.0896v63.5392c0 16.9472 13.7728 30.72 30.72 30.72s30.72-13.7728 30.72-30.72V343.808c0-86.6816 28.6208-148.3264 85.0432-183.2448 43.0592-26.624 87.6544-28.0576 88.6784-28.1088 16.896-0.3072 30.4128-14.1824 30.208-31.1296a30.71488 30.71488 0 0 0-30.6688-30.3104zM269.4144 560.128V384.8192h424.0896v175.36H269.4144zM795.4944 847.2576c-46.8992 0-71.3728-21.1968-91.0336-38.1952-16.128-13.9776-26.8288-23.2448-50.7904-23.2448s-34.6624 9.216-50.7904 23.2448c-19.6608 17.0496-44.1344 38.1952-91.0336 38.1952-46.8992 0-71.3728-21.1968-91.0336-38.1952-16.128-13.9776-26.7776-23.2448-50.7904-23.2448-24.0128 0-34.6624 9.216-50.7904 23.1936-19.6608 17.0496-44.1344 38.2464-91.0336 38.2464-46.8992 0-71.3728-21.1968-91.0336-38.1952-16.128-13.9776-26.7776-23.2448-50.7904-23.2448-16.9472 0-30.72-13.7728-30.72-30.72s13.7728-30.72 30.72-30.72c46.8992 0 71.3728 21.1968 91.0336 38.2464 16.128 13.9776 26.7776 23.1936 50.7904 23.1936 24.0128 0 34.6624-9.216 50.7904-23.2448 19.6608-17.0496 44.1344-38.1952 91.0336-38.1952 46.8992 0 71.3728 21.1968 91.0336 38.2464 16.128 13.9776 26.7776 23.1936 50.7904 23.1936 24.0128 0 34.6624-9.216 50.7904-23.2448 19.6608-17.0496 44.1344-38.1952 91.0336-38.1952 46.8992 0 71.3728 21.1968 91.0336 38.1952 16.128 13.9776 26.8288 23.2448 50.7904 23.2448s34.6624-9.216 50.7904-23.2448c19.6608-17.0496 44.1344-38.1952 91.0336-38.1952 16.9472 0 30.72 13.7728 30.72 30.72s-13.7728 30.72-30.72 30.72c-24.0128 0-34.6624 9.216-50.7904 23.2448-19.6608 16.9984-44.1344 38.1952-91.0336 38.1952z" fill="#5866D2" p-id="3368"></path><path d="M795.4944 962.6624c-46.8992 0-71.3728-21.1968-91.0336-38.1952-16.128-13.9776-26.8288-23.2448-50.7904-23.2448s-34.6624 9.216-50.7904 23.2448c-19.6608 17.0496-44.1344 38.1952-91.0336 38.1952-46.8992 0-71.3728-21.1968-91.0336-38.1952-16.128-13.9776-26.7776-23.2448-50.7904-23.2448-24.0128 0-34.6624 9.216-50.7904 23.1936-19.6608 17.0496-44.1344 38.2464-91.0336 38.2464-46.8992 0-71.3728-21.1968-91.0336-38.1952-16.128-13.9776-26.7776-23.2448-50.7904-23.2448-16.9472 0-30.72-13.7728-30.72-30.72s13.7728-30.72 30.72-30.72c46.8992 0 71.3728 21.1968 91.0336 38.2464 16.128 13.9776 26.7776 23.1936 50.7904 23.1936 24.0128 0 34.6624-9.216 50.7904-23.2448 19.6608-17.0496 44.1344-38.1952 91.0336-38.1952 46.8992 0 71.3728 21.1968 91.0336 38.2464 16.128 13.9776 26.7776 23.1936 50.7904 23.1936 24.0128 0 34.6624-9.216 50.7904-23.2448 19.6608-17.0496 44.1344-38.1952 91.0336-38.1952 46.8992 0 71.3728 21.1968 91.0336 38.1952 16.128 13.9776 26.8288 23.2448 50.7904 23.2448s34.6624-9.216 50.7904-23.2448c19.6608-17.0496 44.1344-38.1952 91.0336-38.1952 16.9472 0 30.72 13.7728 30.72 30.72s-13.7728 30.72-30.72 30.72c-24.0128 0-34.6624 9.216-50.7904 23.2448-19.6608 16.9984-44.1344 38.1952-91.0336 38.1952z" fill="#5866D2" p-id="3369"></path></svg>