<?xml version="1.0" standalone="no"?><!DOCTYPE svg PUBLIC "-//W3C//DTD SVG 1.1//EN" "http://www.w3.org/Graphics/SVG/1.1/DTD/svg11.dtd"><svg t="1754024999632" class="icon" viewBox="0 0 1024 1024" version="1.1" xmlns="http://www.w3.org/2000/svg" p-id="3670" xmlns:xlink="http://www.w3.org/1999/xlink" width="200" height="200"><path d="M182.8352 492.1856h672.5632v284.3136H182.8352z" fill="#CAE2FF" p-id="3671"></path><path d="M949.504 443.8016H78.8992c-16.9472 0-30.72 13.7728-30.72 30.72s13.7728 30.72 30.72 30.72h61.44v216.3712c0 51.456 40.6528 93.44 91.4944 95.8464v64.9216c0 16.9472 13.7728 30.72 30.72 30.72s30.72-13.7728 30.72-30.72V817.664h439.2448v64.7168c0 16.9472 13.7728 30.72 30.72 30.72s30.72-13.7728 30.72-30.72V817.664h4.5568c52.992 0 96.1024-43.1104 96.1024-96.1024V505.2416h54.8864c16.9472 0 30.72-13.7728 30.72-30.72s-13.7216-30.72-30.72-30.72z m-116.3264 277.8112c0 19.0976-15.5648 34.6624-34.6624 34.6624H236.4416c-19.0976 0-34.6624-15.5648-34.6624-34.6624V505.2416h631.3984v216.3712zM78.8992 319.6416h61.44v30.0544c0 35.328 28.7232 64.0512 64.0512 64.0512h24.832c35.328 0 64.0512-28.7232 64.0512-64.0512v-30.0544h30.0544v30.0544c0 35.328 28.7232 64.0512 64.0512 64.0512h24.832c35.328 0 64.0512-28.7232 64.0512-64.0512v-30.0544h28.7744v30.0544c0 35.328 28.7232 64.0512 64.0512 64.0512H593.92c35.328 0 64.0512-28.7232 64.0512-64.0512v-30.0544h291.5328c16.9472 0 30.72-13.7728 30.72-30.72s-13.7728-30.72-30.72-30.72h-291.5328v-30.0544c0-35.328-28.7232-64.0512-64.0512-64.0512h-24.832c-35.328 0-64.0512 28.7232-64.0512 64.0512v30.0544h-28.7744v-30.0544c0-35.328-28.7232-64.0512-64.0512-64.0512h-24.832c-35.328 0-64.0512 28.7232-64.0512 64.0512v30.0544h-30.0544v-30.0544c0-35.328-28.7232-64.0512-64.0512-64.0512h-24.832c-35.328 0-64.0512 28.7232-64.0512 64.0512v30.0544h-61.44c-16.9472 0-30.72 13.7728-30.72 30.72s13.7728 30.72 30.72 30.72z m487.6288-91.5456c0-1.4336 1.1776-2.6112 2.6112-2.6112h24.832c1.4336 0 2.6112 1.1776 2.6112 2.6112V349.696c0 1.4336-1.1776 2.6112-2.6112 2.6112h-24.832c-1.4336 0-2.6112-1.1776-2.6112-2.6112V228.096z m-181.7088 0c0-1.4336 1.1776-2.6112 2.6112-2.6112h24.832c1.4336 0 2.6112 1.1776 2.6112 2.6112V349.696c0 1.4336-1.1776 2.6112-2.6112 2.6112h-24.832c-1.4336 0-2.6112-1.1776-2.6112-2.6112V228.096z m-183.04 0c0-1.4336 1.1776-2.6112 2.6112-2.6112h24.832c1.4336 0 2.6112 1.1776 2.6112 2.6112V349.696c0 1.4336-1.1776 2.6112-2.6112 2.6112h-24.832c-1.4336 0-2.6112-1.1776-2.6112-2.6112V228.096z" fill="#5866D2" p-id="3672"></path></svg>