<?xml version="1.0" standalone="no"?><!DOCTYPE svg PUBLIC "-//W3C//DTD SVG 1.1//EN" "http://www.w3.org/Graphics/SVG/1.1/DTD/svg11.dtd"><svg t="1754024960756" class="icon" viewBox="0 0 1024 1024" version="1.1" xmlns="http://www.w3.org/2000/svg" p-id="3059" xmlns:xlink="http://www.w3.org/1999/xlink" width="200" height="200"><path d="M106.24 655.0528h814.1824s0 99.7376-119.9616 99.7376H199.2704s-79.5136 1.3824-93.0304-99.7376z" fill="#CAE2FF" p-id="3060"></path><path d="M713.5232 922.4704H311.1424c-16.9472 0-30.72-13.7728-30.72-30.72s13.7728-30.72 30.72-30.72h402.3808c16.9472 0 30.72 13.7728 30.72 30.72s-13.7728 30.72-30.72 30.72zM603.5456 528.0768c-2.4064 0-4.8128-0.256-7.2192-0.8704a30.70976 30.70976 0 0 1-23.1424-25.1392l-28.3136-182.6304c-2.6112-16.7424 8.9088-32.4608 25.6512-35.072 16.7424-2.56 32.4608 8.9088 35.072 25.6512l16.896 108.9024 88.6272-122.2656c9.984-13.7216 29.184-16.7936 42.9056-6.8096 13.7216 9.984 16.7936 29.184 6.8096 42.9056l-132.4544 182.6304a30.6432 30.6432 0 0 1-24.832 12.6976z" fill="#5866D2" p-id="3061"></path><path d="M834.816 110.7968H189.8496c-70.4512 0-127.7952 57.344-127.7952 127.7952v426.5984c0 70.4512 57.344 127.7952 127.7952 127.7952h644.9664c70.4512 0 127.7952-57.344 127.7952-127.7952V238.592c0-70.5024-57.344-127.7952-127.7952-127.7952z m-644.9664 61.44h644.9664c36.5568 0 66.3552 29.7472 66.3552 66.3552v375.3472H123.4944V238.592c0-36.608 29.7472-66.3552 66.3552-66.3552z m644.9664 559.2576H189.8496c-33.1264 0-60.5696-24.4224-65.4848-56.1664h775.936c-4.9152 31.7952-32.3584 56.1664-65.4848 56.1664z" fill="#5866D2" p-id="3062"></path><path d="M295.3216 345.4464h62.1568l-41.1648 143.4624c-4.6592 16.3328 4.7616 33.3312 21.0432 37.9904 2.816 0.8192 5.6832 1.1776 8.4992 1.1776 13.3632 0 25.6512-8.7552 29.4912-22.272l46.0288-160.4096h74.752c16.9472 0 30.72-13.7728 30.72-30.72s-13.7728-30.72-30.72-30.72H295.3216c-16.9472 0-30.72 13.7728-30.72 30.72s13.7216 30.7712 30.72 30.7712z" fill="#5866D2" p-id="3063"></path></svg>