<?xml version="1.0" standalone="no"?><!DOCTYPE svg PUBLIC "-//W3C//DTD SVG 1.1//EN" "http://www.w3.org/Graphics/SVG/1.1/DTD/svg11.dtd"><svg t="1754024994471" class="icon" viewBox="0 0 1024 1024" version="1.1" xmlns="http://www.w3.org/2000/svg" p-id="3519" xmlns:xlink="http://www.w3.org/1999/xlink" width="200" height="200"><path d="M799.1808 669.6448m-164.7104 0a164.7104 164.7104 0 1 0 329.4208 0 164.7104 164.7104 0 1 0-329.4208 0Z" fill="#CAE2FF" p-id="3520"></path><path d="M231.936 731.0848m-164.7104 0a164.7104 164.7104 0 1 0 329.4208 0 164.7104 164.7104 0 1 0-329.4208 0Z" fill="#CAE2FF" p-id="3521"></path><path d="M799.1808 474.2144c-12.4928 0-24.6784 1.2288-36.5056 3.4816l-90.112-264.6528 68.1472-30.5152a31.68256 31.68256 0 0 1 39.936 12.3904c9.0112 14.7456 4.7104 33.6384-9.728 43.0592l-9.4208 6.144a30.6944 30.6944 0 0 0-9.0112 42.496 30.6944 30.6944 0 0 0 42.496 9.0112l9.4208-6.144c42.5472-27.6992 55.1424-83.3024 28.6208-126.6176-24.3712-39.8336-74.8544-55.4496-117.4528-36.352l-93.696 41.984a30.72 30.72 0 0 0-16.5376 37.9392l35.7376 104.9088-362.5984 40.8064 4.5568-109.4144h37.7856c16.9472 0 30.72-13.7728 30.72-30.72s-13.7728-30.72-30.72-30.72H184.8832c-16.9472 0-30.72 13.7728-30.72 30.72s13.7728 30.72 30.72 30.72h36.6592l-12.2368 294.4c-97.1264 11.264-172.7488 94.0032-172.7488 194.048 0 107.776 87.6544 195.4304 195.4304 195.4304s195.4304-87.6544 195.4304-195.4304c0-94.5152-67.4304-173.568-156.7232-191.5392l5.2224-125.3376 385.4336-43.3664 43.52 127.744c-60.2624 33.3312-101.12 97.536-101.12 171.1104 0 107.776 87.6544 195.4304 195.4304 195.4304s195.4304-87.6544 195.4304-195.4304c0-107.9296-87.7056-195.584-195.4304-195.584z m-433.2032 256.8704c0 73.8816-60.1088 133.9904-133.9904 133.9904-73.8816 0-133.9904-60.1088-133.9904-133.9904 0-65.2288 46.8992-119.7056 108.7488-131.584l-5.4272 130.304a30.73536 30.73536 0 0 0 29.44 32h1.28c16.384 0 30.0032-12.9024 30.6688-29.44l5.4272-130.304c56.32 15.8208 97.8432 67.6352 97.8432 129.024z m433.2032 72.5504c-73.8816 0-133.9904-60.1088-133.9904-133.9904 0-46.5408 23.8592-87.552 59.9552-111.616l32 94.0544a30.70976 30.70976 0 0 0 38.9632 19.2 30.75072 30.75072 0 0 0 19.2-38.9632l-32.5632-95.5904c5.376-0.6656 10.8544-1.024 16.384-1.024 73.8816 0 133.9904 60.1088 133.9904 133.9904 0.0512 73.8304-60.0576 133.9392-133.9392 133.9392z" fill="#5866D2" p-id="3522"></path></svg>