<?xml version="1.0" standalone="no"?><!DOCTYPE svg PUBLIC "-//W3C//DTD SVG 1.1//EN" "http://www.w3.org/Graphics/SVG/1.1/DTD/svg11.dtd"><svg t="1754024817558" class="icon" viewBox="0 0 1024 1024" version="1.1" xmlns="http://www.w3.org/2000/svg" p-id="1387" xmlns:xlink="http://www.w3.org/1999/xlink" width="200" height="200"><path d="M263.7824 289.2288v204.9024l250.6752-92.16 249.344 79.4112V289.2288z" fill="#CAE2FF" p-id="1388"></path><path d="M974.848 856.4224a30.72 30.72 0 0 0-40.96-14.4896c-43.264 20.6336-79.3088 34.048-110.2336 42.24l113.2544-323.9936a30.70464 30.70464 0 0 0-18.8416-39.1168l-106.24-37.2736V313.3952c0-39.6288-32.256-71.8848-71.8848-71.8848h-77.1072V151.296c0-43.264-35.1744-78.4384-78.4384-78.4384H444.5184c-43.264 0-78.4384 35.1744-78.4384 78.4384v90.2144H286.3104c-39.6288 0-71.8848 32.256-71.8848 71.8848v175.36l-95.3856 34.304a30.99648 30.99648 0 0 0-17.7152 16.4864 30.72 30.72 0 0 0-0.256 24.1664l136.7552 329.6768c-75.776-9.6256-133.2224-48.4864-134.0416-49.0496a30.72 30.72 0 1 0-35.0208 50.4832c4.608 3.2256 91.2896 62.3616 201.6256 62.3616 31.488 0 64.9216-4.8128 98.9184-17.152 126.976-46.0288 181.248-29.4912 250.0096-8.6016l13.312 4.0448c74.1888 22.7328 150.8352 46.2336 327.68-38.1952 15.36-7.2192 21.8624-25.5488 14.5408-40.8576zM427.52 151.296c0-9.3696 7.6288-16.9984 16.9984-16.9984h139.8784c9.3696 0 16.9984 7.6288 16.9984 16.9984v90.2144H427.52V151.296zM275.8656 313.3952c0-5.7856 4.7104-10.4448 10.4448-10.4448h453.632c5.7856 0 10.4448 4.7104 10.4448 10.4448v148.7872l-223.488-78.4384c-6.656-2.3552-13.9264-2.304-20.5824 0.1024L275.8656 466.688V313.3952z m72.5504 568.9344a217.89696 217.89696 0 0 1-44.1344 10.9056l-134.0928-323.2256 315.8016-113.5616v393.5744c-37.7344 2.7648-82.1248 12.1856-137.5744 32.3072z m288.8192-9.6256c-28.8768-8.8064-57.1904-17.3568-89.8048-21.2992v-395.264l321.3312 112.7424-113.92 325.9392c-41.216 1.2288-72.2944-8.2432-104.192-18.0224l-13.4144-4.096z" fill="#5866D2" p-id="1389"></path></svg>