<?xml version="1.0" standalone="no"?><!DOCTYPE svg PUBLIC "-//W3C//DTD SVG 1.1//EN" "http://www.w3.org/Graphics/SVG/1.1/DTD/svg11.dtd"><svg t="1754024949916" class="icon" viewBox="0 0 1024 1024" version="1.1" xmlns="http://www.w3.org/2000/svg" p-id="2603" xmlns:xlink="http://www.w3.org/1999/xlink" width="200" height="200"><path d="M404.1728 523.6224c-16.9472 0-30.72-13.7728-30.72-30.72v-15.36c0-16.9472 13.7728-30.72 30.72-30.72s30.72 13.7728 30.72 30.72v15.36c0 16.9472-13.7216 30.72-30.72 30.72zM404.1728 754.8416c-16.9472 0-30.72-13.7728-30.72-30.72v-26.6752c0-16.9472 13.7728-30.72 30.72-30.72s30.72 13.7728 30.72 30.72v26.6752c0 16.9984-13.7216 30.72-30.72 30.72z m0-115.6096c-16.9472 0-30.72-13.7728-30.72-30.72v-26.6752c0-16.9472 13.7728-30.72 30.72-30.72s30.72 13.7728 30.72 30.72v26.6752c0 16.9472-13.7216 30.72-30.72 30.72zM404.1728 859.136c-16.9472 0-30.72-13.7728-30.72-30.72v-15.36c0-16.9472 13.7728-30.72 30.72-30.72s30.72 13.7728 30.72 30.72v15.36c0 16.9984-13.7216 30.72-30.72 30.72z" fill="#5866D2" p-id="2604"></path><path d="M214.1696 399.2576h606.976c26.5728 0 50.3296 11.776 66.5088 30.3104 3.6352-13.7216 1.8944-28.8256-6.0928-41.8304l-29.5424-48.2304c-10.496 3.5328-21.6576 5.5296-33.3312 5.5296-57.856 0-104.7552-46.8992-104.7552-104.7552 0-29.3376 12.0832-55.808 31.5392-74.8544l-14.3872-23.4496c-22.8352-37.3248-71.2704-49.664-109.2096-27.8528L164.3008 377.1392a49.11104 49.11104 0 0 0-21.8112 59.0336c15.9744-22.3232 42.0864-36.9152 71.68-36.9152z" fill="#CAE2FF" p-id="2605"></path><path d="M909.5168 564.4288c16.9472 0 30.72-13.7728 30.72-30.72v-46.08c0-24.5248-7.4752-47.36-20.224-66.3552 1.1776-17.3056-2.9696-34.4576-12.1856-49.6128l-29.5424-48.2304a30.6176 30.6176 0 0 0-35.9936-13.056c-7.7312 2.6112-15.6672 3.8912-23.552 3.8912-40.8064 0-74.0352-33.2288-74.0352-74.0352 0-20.0192 7.936-38.8096 22.272-52.8896a30.72 30.72 0 0 0 4.7104-37.9904l-14.3872-23.4496c-31.7952-51.8656-97.9456-68.7616-150.6816-38.4512L148.992 350.5152c-28.6208 16.4352-43.6224 48.384-39.2704 80.0256a118.05184 118.05184 0 0 0-14.592 57.0368v46.5408a30.72 30.72 0 0 0 28.16 30.6176c46.4384 3.8912 82.7904 43.4688 82.7904 90.112 0 46.6432-36.352 86.2208-82.7904 90.112a30.72 30.72 0 0 0-28.16 30.6176v46.5408c0 65.6384 53.4016 119.0912 119.0912 119.0912h606.976c65.6384 0 119.0912-53.4016 119.0912-119.0912v-46.08c0-16.9472-13.7728-30.72-30.72-30.72-49.8688 0-90.4704-40.6016-90.4704-90.4704-0.0512-49.8688 40.5504-90.4192 90.4192-90.4192z m-272.2816-423.7312a49.83296 49.83296 0 0 1 67.6864 17.2544l2.816 4.5568c-15.9232 22.5792-24.4736 49.4592-24.4736 77.6704 0 59.4944 38.5536 110.1824 92.0064 128.3072H240.896l396.3392-227.7888z m241.5616 662.9376v18.4832c0 31.7952-25.856 57.6512-57.6512 57.6512H214.1696c-31.7952 0-57.6512-25.856-57.6512-57.6512v-21.0432c64.0512-18.0736 110.9504-77.6192 110.9504-146.2272s-46.8992-128.1536-110.9504-146.2272v-21.0432c0-12.4416 3.9936-23.9616 10.752-33.4336l0.1024-0.1024c1.3312-1.8432 2.7648-3.6352 4.3008-5.2736 0.0512-0.0512 0.1024-0.1024 0.1024-0.1536 6.144-6.656 13.7216-11.7248 22.016-14.8992 0.2048-0.1024 0.4608-0.1536 0.6656-0.256a66.56 66.56 0 0 1 5.4272-1.6896l1.1776-0.3072c1.6896-0.4096 3.4304-0.7168 5.1712-0.9728 0.4608-0.0512 0.9216-0.1536 1.3824-0.2048 2.1504-0.256 4.352-0.4096 6.5024-0.4096h606.976c2.048 0 4.096 0.1024 6.0928 0.3072 0.256 0.0512 0.512 0.1024 0.768 0.1024 1.792 0.2048 3.5328 0.4608 5.2736 0.8704 0.2048 0.0512 0.4096 0.1024 0.5632 0.1536 1.792 0.4096 3.5328 0.8704 5.2736 1.4336l0.4608 0.1536c1.7408 0.6144 3.4816 1.28 5.1712 2.048 0.1536 0.0512 0.3072 0.1536 0.4608 0.2048 1.6896 0.768 3.328 1.6384 4.9152 2.56l0.4608 0.3072c1.5872 0.9216 3.1232 1.9456 4.608 3.072 0.1536 0.1024 0.256 0.2048 0.4096 0.3072 1.536 1.1264 2.9696 2.3552 4.4032 3.6352l0.2048 0.2048c1.4848 1.3824 2.9184 2.816 4.2496 4.352l0.0512 0.0512c8.8064 10.1376 14.1824 23.296 14.1824 37.7856v18.4832c-69.0688 14.2336-121.1904 75.52-121.1904 148.7872s52.2752 134.7072 121.344 148.9408z" fill="#5866D2" p-id="2606"></path><path d="M414.3616 369.152c-10.5472 0-20.8384-5.4272-26.5728-15.2064l-9.5744-16.384c-8.5504-14.6432-3.6352-33.4848 11.008-42.0352 14.6432-8.5504 33.4848-3.6352 42.0352 11.008l9.5744 16.384c8.5504 14.6432 3.6352 33.4848-11.008 42.0352-4.864 2.8672-10.1888 4.1984-15.4624 4.1984z" fill="#5866D2" p-id="2607"></path></svg>