<?xml version="1.0" standalone="no"?><!DOCTYPE svg PUBLIC "-//W3C//DTD SVG 1.1//EN" "http://www.w3.org/Graphics/SVG/1.1/DTD/svg11.dtd"><svg t="1754024804930" class="icon" viewBox="0 0 1024 1024" version="1.1" xmlns="http://www.w3.org/2000/svg" p-id="1237" xmlns:xlink="http://www.w3.org/1999/xlink" width="200" height="200"><path d="M722.9952 461.2096l-146.688 125.0816 109.6192 350.4128 68.8128-68.8128zM577.7408 303.8208l-127.6416 144.384-348.416-115.7632 70.0416-67.6352z" fill="#CAE2FF" p-id="1238"></path><path d="M685.9264 967.424a30.58176 30.58176 0 0 1-29.2864-21.5552l-97.4336-311.6032-101.5808 66.4576 1.1264 174.8992c0.0512 8.2432-3.1744 16.128-9.0112 21.9136l-53.6576 53.6576a30.60224 30.60224 0 0 1-27.904 8.3456 30.60224 30.60224 0 0 1-22.3232-18.7392L273.7664 759.808l-195.328-85.76a30.72 30.72 0 0 1-17.8176-22.4768c-1.8944-9.984 1.28-20.224 8.448-27.392l53.6576-53.6576a30.53568 30.53568 0 0 1 23.4496-8.96l187.9552 10.5984 64.8192-102.5024-306.5344-107.2128c-9.984-3.4816-17.4592-11.8784-19.8144-22.1696s0.768-21.0944 8.2432-28.5696l66.3552-66.3552a30.81216 30.81216 0 0 1 24.7296-8.8576l386.304 38.0416 140.5952-140.5952c29.696-29.696 68.9664-49.0496 110.6432-54.4768l75.264-9.8304c22.1696-2.9184 43.8784 4.608 59.4944 20.6848 15.616 16.0256 22.5792 37.888 19.0976 60.0064l-11.6224 73.7792c-6.3488 40.2944-24.9344 76.8512-53.8112 105.6768L754.688 472.9344l30.6688 392.5504c0.7168 8.96-2.56 17.7664-8.9088 24.1152L707.584 958.464a30.66368 30.66368 0 0 1-21.6576 8.96z m-109.6192-411.8528a30.60736 30.60736 0 0 1 29.3376 21.5552l94.4128 301.9776 22.9376-22.9376-30.6688-392.5504c-0.7168-8.96 2.56-17.7664 8.9088-24.1152l153.2416-153.2416c19.6096-19.6096 32.2048-44.4416 36.5568-71.7824l11.6224-73.7792c0.6144-3.84-1.28-6.4-2.4064-7.5776-1.1776-1.1776-3.6864-3.1232-7.5264-2.6112l-75.264 9.8304c-28.2624 3.6864-54.9888 16.8448-75.1616 37.0176l-150.8864 150.8864a30.6432 30.6432 0 0 1-24.7296 8.8576l-386.304-38.0416-21.5552 21.5552L455.68 424.5504c8.8576 3.072 15.8208 10.0864 18.8928 18.944 3.072 8.8576 1.9456 18.6368-3.072 26.5216l-1.6384 2.5088-93.4912 147.8656a30.43328 30.43328 0 0 1-27.6992 14.2336l-192.256-10.8544-12.1344 12.1344 165.6832 72.7552c7.3728 3.2256 13.2096 9.2672 16.1792 16.7936l59.392 149.3504 11.5712-11.5712-1.1776-178.7904a30.7456 30.7456 0 0 1 13.9264-25.9072l149.6064-97.8432c5.12-3.3792 10.9568-5.12 16.8448-5.12z" fill="#5866D2" p-id="1239"></path></svg>