<?xml version="1.0" standalone="no"?><!DOCTYPE svg PUBLIC "-//W3C//DTD SVG 1.1//EN" "http://www.w3.org/Graphics/SVG/1.1/DTD/svg11.dtd"><svg t="1754024957631" class="icon" viewBox="0 0 1024 1024" version="1.1" xmlns="http://www.w3.org/2000/svg" p-id="2907" xmlns:xlink="http://www.w3.org/1999/xlink" width="200" height="200"><path d="M168.704 449.1264s96.1024 49.1008 157.8496 14.7456 107.8272-25.0368 158.8224-1.28c32.3584 12.032 88.8832 11.008 120.9344-7.5776s79.4112-21.9136 105.728 26.7776c-23.1424 81.7664-117.504 225.4848-271.104 225.4848s-267.3152-129.6896-272.2304-258.1504z" fill="#CAE2FF" p-id="2908"></path><path d="M920.0128 260.9152c0-109.568-89.1392-198.7072-198.7072-198.7072a198.07232 198.07232 0 0 0-195.5328 163.4304H289.0752L199.1168 106.5472c-10.24-13.5168-29.4912-16.2304-43.008-5.9904-13.5168 10.24-16.2304 29.4912-5.9904 43.008l62.0032 82.0224h-56.832c-16.9472 0-30.72 13.7728-30.72 30.72v165.376c0 164.864 126.7712 300.5952 287.9488 315.0336-0.1024 25.344-0.0512 69.888 0.2048 149.0432H280.7808c-16.9472 0-30.72 13.7728-30.72 30.72s13.7728 30.72 30.72 30.72h325.4784c16.9472 0 30.72-13.7728 30.72-30.72s-13.7728-30.72-30.72-30.72h-132.096c-0.1536-50.5856-0.256-113.92-0.2048-149.4528 147.456-15.36 265.0112-132.4544 281.2928-279.6032 93.7984-16.2816 164.7616-98.9184 164.7616-195.7888z m-63.232-22.2208h-105.0624a31.3856 31.3856 0 0 0-6.8096-6.9632v-105.984c57.2416 9.8816 102.4512 55.4496 111.872 112.9472z m-173.3632-109.7728v96.7168h-94.7712c12.3904-47.104 48.6912-83.6096 94.7712-96.7168z m12.4416 158.1056v119.3984c-39.1168-18.176-84.8896-14.2848-127.3856 12.6464-27.392 17.3568-52.8896 18.0224-75.776 1.9456-0.2048-0.1536-0.4608-0.3072-0.7168-0.4608-25.4976-16.896-51.4048-24.5248-75.5712-26.4704l-80.896-107.008h360.3456z m-437.3504 0L346.624 403.6096c-11.8784 4.3008-22.0672 9.472-29.7984 14.4896l-2.7648 1.792c-11.7248 7.68-17.5616 11.5712-52.5824 13.2096-22.272 0.9216-55.808-18.6368-75.4688-33.7408V287.0272h72.4992z m182.4256 389.5808c-122.112 0-224.3584-86.3232-249.1392-201.1136 20.3264 10.3936 44.4416 19.0976 68.1984 19.0976 1.4336 0 2.9184-0.0512 4.352-0.1024 48.384-2.2528 63.8464-10.24 83.5584-23.2448l2.56-1.6896c2.1504-1.3824 52.992-33.7408 107.3664 1.9968 43.1616 30.1056 95.488 29.9008 143.616-0.6144 18.9952-12.032 55.7056-27.2896 88.4736 5.376-25.088 114.3808-127.1808 200.2944-248.9856 200.2944z m316.3648-283.2384V300.1344h95.5392c-13.568 44.9536-49.7664 80.7424-95.5392 93.2352z" fill="#5866D2" p-id="2909"></path></svg>